<?xml version="1.0"?>
<svg width="1280" height="1024" xmlns="http://www.w3.org/2000/svg" xmlns:svg="http://www.w3.org/2000/svg">

	<g>
		<title>Titles</title>
		<text id="state" x="640" y="87" text-anchor="middle" font-size="20" font-family="Sans-serif">Colorado</text>
		<text id="distance" x="640" y="888" text-anchor="middle" font-size="20" font-family="Sans-serif">1312 miles</text>
	</g>
	<g>
		<title>Distances</title>
		<text id="label12" x="1151" y="742" text-anchor="middle" font-size="16" font-family="Sans-serif">12</text>
		<text id="label19" x="1119" y="706" text-anchor="middle" font-size="16" font-family="Sans-serif">19</text>
		<text id="label11" x="1114" y="576" text-anchor="middle" font-size="16" font-family="Sans-serif">11</text>
		<text id="label6" x="1128" y="498" text-anchor="middle" font-size="16" font-family="Sans-serif">6</text>
		<text id="label14" x="1143" y="401" text-anchor="middle" font-size="16" font-family="Sans-serif">14</text>
		<text id="label9" x="1165" y="293" text-anchor="middle" font-size="16" font-family="Sans-serif">9</text>
		<text id="label4" x="1170" y="219" text-anchor="middle" font-size="16" font-family="Sans-serif">4</text>
		<text id="label44" x="1107" y="208" text-anchor="middle" font-size="16" font-family="Sans-serif">44</text>
		<text id="label13" x="1036" y="284" text-anchor="middle" font-size="16" font-family="Sans-serif">13</text>
		<text id="label23" x="1000" y="430" text-anchor="middle" font-size="16" font-family="Sans-serif">23</text>
		<text id="label19" x="951" y="569" text-anchor="middle" font-size="16" font-family="Sans-serif">19</text>
		<text id="label8" x="934" y="663" text-anchor="middle" font-size="16" font-family="Sans-serif">8</text>
		<text id="label21" x="913" y="747" text-anchor="middle" font-size="16" font-family="Sans-serif">21</text>
		<text id="label29" x="879" y="627" text-anchor="middle" font-size="16" font-family="Sans-serif">29</text>
		<text id="label14" x="854" y="431" text-anchor="middle" font-size="16" font-family="Sans-serif">14</text>
		<text id="label3" x="837" y="384" text-anchor="middle" font-size="16" font-family="Sans-serif">3</text>
		<text id="label11" x="832" y="307" text-anchor="middle" font-size="16" font-family="Sans-serif">11</text>
		<text id="label27" x="815" y="394" text-anchor="middle" font-size="16" font-family="Sans-serif">27</text>
		<text id="label10" x="806" y="595" text-anchor="middle" font-size="16" font-family="Sans-serif">10</text>
		<text id="label29" x="770" y="691" text-anchor="middle" font-size="16" font-family="Sans-serif">29</text>
		<text id="label23" x="712" y="632" text-anchor="middle" font-size="16" font-family="Sans-serif">23</text>
		<text id="label12" x="687" y="472" text-anchor="middle" font-size="16" font-family="Sans-serif">12</text>
		<text id="label12" x="669" y="370" text-anchor="middle" font-size="16" font-family="Sans-serif">12</text>
		<text id="label9" x="645" y="347" text-anchor="middle" font-size="16" font-family="Sans-serif">9</text>
		<text id="label9" x="622" y="381" text-anchor="middle" font-size="16" font-family="Sans-serif">9</text>
		<text id="label10" x="606" y="443" text-anchor="middle" font-size="16" font-family="Sans-serif">10</text>
		<text id="label21" x="627" y="547" text-anchor="middle" font-size="16" font-family="Sans-serif">21</text>
		<text id="label6" x="657" y="633" text-anchor="middle" font-size="16" font-family="Sans-serif">6</text>
		<text id="label14" x="656" y="732" text-anchor="middle" font-size="16" font-family="Sans-serif">14</text>
		<text id="label22" x="621" y="777" text-anchor="middle" font-size="16" font-family="Sans-serif">22</text>
		<text id="label24" x="558" y="783" text-anchor="middle" font-size="16" font-family="Sans-serif">24</text>
		<text id="label14" x="519" y="744" text-anchor="middle" font-size="16" font-family="Sans-serif">14</text>
		<text id="label13" x="507" y="615" text-anchor="middle" font-size="16" font-family="Sans-serif">13</text>
		<text id="label8" x="498" y="516" text-anchor="middle" font-size="16" font-family="Sans-serif">8</text>
		<text id="label14" x="514" y="442" text-anchor="middle" font-size="16" font-family="Sans-serif">14</text>
		<text id="label9" x="535" y="365" text-anchor="middle" font-size="16" font-family="Sans-serif">9</text>
		<text id="label17" x="519" y="277" text-anchor="middle" font-size="16" font-family="Sans-serif">17</text>
		<text id="label28" x="469" y="318" text-anchor="middle" font-size="16" font-family="Sans-serif">28</text>
		<text id="label16" x="419" y="439" text-anchor="middle" font-size="16" font-family="Sans-serif">16</text>
		<text id="label14" x="386" y="520" text-anchor="middle" font-size="16" font-family="Sans-serif">14</text>
		<text id="label20" x="385" y="653" text-anchor="middle" font-size="16" font-family="Sans-serif">20</text>
		<text id="label11" x="388" y="777" text-anchor="middle" font-size="16" font-family="Sans-serif">11</text>
		<text id="label23" x="350" y="763" text-anchor="middle" font-size="16" font-family="Sans-serif">23</text>
		<text id="label17" x="298" y="714" text-anchor="middle" font-size="16" font-family="Sans-serif">17</text>
		<text id="label9" x="265" y="686" text-anchor="middle" font-size="16" font-family="Sans-serif">9</text>
		<text id="label14" x="249" y="595" text-anchor="middle" font-size="16" font-family="Sans-serif">14</text>
		<text id="label14" x="237" y="472" text-anchor="middle" font-size="16" font-family="Sans-serif">14</text>
		<text id="label19" x="208" y="379" text-anchor="middle" font-size="16" font-family="Sans-serif">19</text>
		<text id="label11" x="184" y="297" text-anchor="middle" font-size="16" font-family="Sans-serif">11</text>
		<text id="label33" x="162" y="377" text-anchor="middle" font-size="16" font-family="Sans-serif">33</text>
		<text id="label17" x="157" y="559" text-anchor="middle" font-size="16" font-family="Sans-serif">17</text>
		<text id="label13" x="160" y="644" text-anchor="middle" font-size="16" font-family="Sans-serif">13</text>
		<text id="label8" x="137" y="700" text-anchor="middle" font-size="16" font-family="Sans-serif">8</text>
		<text id="label9" x="123" y="756" text-anchor="middle" font-size="16" font-family="Sans-serif">9</text>
		<text id="label46" x="181" y="795" text-anchor="middle" font-size="16" font-family="Sans-serif">46</text>
		<text id="label77" x="316" y="531" text-anchor="middle" font-size="16" font-family="Sans-serif">77</text>
		<text id="label61" x="433" y="514" text-anchor="middle" font-size="16" font-family="Sans-serif">61</text>
		<text id="label78" x="561" y="499" text-anchor="middle" font-size="16" font-family="Sans-serif">78</text>
		<text id="label28" x="679" y="291" text-anchor="middle" font-size="16" font-family="Sans-serif">28</text>
		<text id="label11" x="729" y="367" text-anchor="middle" font-size="16" font-family="Sans-serif">11</text>
		<text id="label7" x="740" y="419" text-anchor="middle" font-size="16" font-family="Sans-serif">7</text>
		<text id="label69" x="830" y="377" text-anchor="middle" font-size="16" font-family="Sans-serif">69</text>
		<text id="label55" x="985" y="495" text-anchor="middle" font-size="16" font-family="Sans-serif">55</text>
		<text id="label41" x="1105" y="689" text-anchor="middle" font-size="16" font-family="Sans-serif">41</text>
	</g>
	<g>
		<title>Borders</title>
		<line id="north" x1="50" y1="174" x2="1230" y2="174" stroke-width="3" stroke="#333"/>
		<line id="east" x1="1230" y1="174" x2="1230" y2="848" stroke-width="3" stroke="#333"/>
		<line id="south" x1="1230" y1="848" x2="50" y2="848" stroke-width="3" stroke="#333"/>
		<line id="west" x1="50" y1="848" x2="50" y2="174" stroke-width="3" stroke="#333"/>
	</g>
	<g>
		<title>Legs</title>
		<line id="leg0" x1="1164" y1="687" x2="1138" y2="798" stroke-width="2" stroke="#333"/>
		<line id="leg1" x1="1138" y1="798" x2="1101" y2="614" stroke-width="2" stroke="#333"/>
		<line id="leg2" x1="1101" y1="614" x2="1128" y2="538" stroke-width="2" stroke="#333"/>
		<line id="leg3" x1="1128" y1="538" x2="1128" y2="459" stroke-width="2" stroke="#333"/>
		<line id="leg4" x1="1128" y1="459" x2="1159" y2="343" stroke-width="2" stroke="#333"/>
		<line id="leg5" x1="1159" y1="343" x2="1171" y2="243" stroke-width="2" stroke="#333"/>
		<line id="leg6" x1="1171" y1="243" x2="1169" y2="196" stroke-width="2" stroke="#333"/>
		<line id="leg7" x1="1169" y1="196" x2="1046" y2="220" stroke-width="2" stroke="#333"/>
		<line id="leg8" x1="1046" y1="220" x2="1026" y2="348" stroke-width="2" stroke="#333"/>
		<line id="leg9" x1="1026" y1="348" x2="975" y2="513" stroke-width="2" stroke="#333"/>
		<line id="leg10" x1="975" y1="513" x2="928" y2="626" stroke-width="2" stroke="#333"/>
		<line id="leg11" x1="928" y1="626" x2="940" y2="700" stroke-width="2" stroke="#333"/>
		<line id="leg12" x1="940" y1="700" x2="886" y2="795" stroke-width="2" stroke="#333"/>
		<line id="leg13" x1="886" y1="795" x2="872" y2="459" stroke-width="2" stroke="#333"/>
		<line id="leg14" x1="872" y1="459" x2="837" y2="404" stroke-width="2" stroke="#333"/>
		<line id="leg15" x1="837" y1="404" x2="837" y2="365" stroke-width="2" stroke="#333"/>
		<line id="leg16" x1="837" y1="365" x2="828" y2="249" stroke-width="2" stroke="#333"/>
		<line id="leg17" x1="828" y1="249" x2="803" y2="540" stroke-width="2" stroke="#333"/>
		<line id="leg18" x1="803" y1="540" x2="810" y2="651" stroke-width="2" stroke="#333"/>
		<line id="leg19" x1="810" y1="651" x2="731" y2="732" stroke-width="2" stroke="#333"/>
		<line id="leg20" x1="731" y1="732" x2="693" y2="533" stroke-width="2" stroke="#333"/>
		<line id="leg21" x1="693" y1="533" x2="682" y2="412" stroke-width="2" stroke="#333"/>
		<line id="leg22" x1="682" y1="412" x2="656" y2="328" stroke-width="2" stroke="#333"/>
		<line id="leg23" x1="656" y1="328" x2="634" y2="367" stroke-width="2" stroke="#333"/>
		<line id="leg24" x1="634" y1="367" x2="611" y2="395" stroke-width="2" stroke="#333"/>
		<line id="leg25" x1="611" y1="395" x2="602" y2="491" stroke-width="2" stroke="#333"/>
		<line id="leg26" x1="602" y1="491" x2="653" y2="603" stroke-width="2" stroke="#333"/>
		<line id="leg27" x1="653" y1="603" x2="661" y2="663" stroke-width="2" stroke="#333"/>
		<line id="leg28" x1="661" y1="663" x2="651" y2="801" stroke-width="2" stroke="#333"/>
		<line id="leg29" x1="651" y1="801" x2="591" y2="753" stroke-width="2" stroke="#333"/>
		<line id="leg30" x1="591" y1="753" x2="525" y2="813" stroke-width="2" stroke="#333"/>
		<line id="leg31" x1="525" y1="813" x2="513" y2="675" stroke-width="2" stroke="#333"/>
		<line id="leg32" x1="513" y1="675" x2="501" y2="555" stroke-width="2" stroke="#333"/>
		<line id="leg33" x1="501" y1="555" x2="496" y2="478" stroke-width="2" stroke="#333"/>
		<line id="leg34" x1="496" y1="478" x2="532" y2="407" stroke-width="2" stroke="#333"/>
		<line id="leg35" x1="532" y1="407" x2="538" y2="323" stroke-width="2" stroke="#333"/>
		<line id="leg36" x1="538" y1="323" x2="500" y2="232" stroke-width="2" stroke="#333"/>
		<line id="leg37" x1="500" y1="232" x2="439" y2="405" stroke-width="2" stroke="#333"/>
		<line id="leg38" x1="439" y1="405" x2="400" y2="474" stroke-width="2" stroke="#333"/>
		<line id="leg39" x1="400" y1="474" x2="373" y2="567" stroke-width="2" stroke="#333"/>
		<line id="leg40" x1="373" y1="567" x2="398" y2="739" stroke-width="2" stroke="#333"/>
		<line id="leg41" x1="398" y1="739" x2="378" y2="815" stroke-width="2" stroke="#333"/>
		<line id="leg42" x1="378" y1="815" x2="323" y2="712" stroke-width="2" stroke="#333"/>
		<line id="leg43" x1="323" y1="712" x2="274" y2="717" stroke-width="2" stroke="#333"/>
		<line id="leg44" x1="274" y1="717" x2="257" y2="655" stroke-width="2" stroke="#333"/>
		<line id="leg45" x1="257" y1="655" x2="242" y2="535" stroke-width="2" stroke="#333"/>
		<line id="leg46" x1="242" y1="535" x2="233" y2="410" stroke-width="2" stroke="#333"/>
		<line id="leg47" x1="233" y1="410" x2="184" y2="348" stroke-width="2" stroke="#333"/>
		<line id="leg48" x1="184" y1="348" x2="184" y2="247" stroke-width="2" stroke="#333"/>
		<line id="leg49" x1="184" y1="247" x2="141" y2="508" stroke-width="2" stroke="#333"/>
		<line id="leg50" x1="141" y1="508" x2="174" y2="611" stroke-width="2" stroke="#333"/>
		<line id="leg51" x1="174" y1="611" x2="146" y2="678" stroke-width="2" stroke="#333"/>
		<line id="leg52" x1="146" y1="678" x2="129" y2="722" stroke-width="2" stroke="#333"/>
		<line id="leg53" x1="129" y1="722" x2="117" y2="791" stroke-width="2" stroke="#333"/>
		<line id="leg54" x1="117" y1="791" x2="245" y2="800" stroke-width="2" stroke="#333"/>
		<line id="leg55" x1="245" y1="800" x2="388" y2="262" stroke-width="2" stroke="#333"/>
		<line id="leg56" x1="388" y1="262" x2="479" y2="766" stroke-width="2" stroke="#333"/>
		<line id="leg57" x1="479" y1="766" x2="643" y2="232" stroke-width="2" stroke="#333"/>
		<line id="leg58" x1="643" y1="232" x2="715" y2="351" stroke-width="2" stroke="#333"/>
		<line id="leg59" x1="715" y1="351" x2="744" y2="383" stroke-width="2" stroke="#333"/>
		<line id="leg60" x1="744" y1="383" x2="736" y2="456" stroke-width="2" stroke="#333"/>
		<line id="leg61" x1="736" y1="456" x2="924" y2="299" stroke-width="2" stroke="#333"/>
		<line id="leg62" x1="924" y1="299" x2="1047" y2="692" stroke-width="2" stroke="#333"/>
		<line id="leg63" x1="1047" y1="692" x2="1164" y2="687" stroke-width="2" stroke="#333"/>
	</g>
</svg>